<?xml version="1.0" encoding="UTF-8"?>
<svg version="1.1" xmlns="http://www.w3.org/2000/svg" width="84" height="84">
<path d="M0 0 C3.2399769 -0.364408 4.61307737 -0.28056417 7.29589844 1.66479492 C8.0593457 2.42896729 8.82279297 3.19313965 9.609375 3.98046875 C10.44597656 4.81513672 11.28257813 5.64980469 12.14453125 6.50976562 C13.00433594 7.39341797 13.86414062 8.27707031 14.75 9.1875 C16.06291016 10.48397461 16.06291016 10.48397461 17.40234375 11.80664062 C24.4368134 18.92290643 24.4368134 18.92290643 25 24 C23.68 24.33 22.36 24.66 21 25 C16.05 20.05 11.1 15.1 6 10 C5.67 25.84 5.34 41.68 5 58 C3.35 57.67 1.7 57.34 0 57 C-0.33 41.49 -0.66 25.98 -1 10 C-5.95 14.95 -10.9 19.9 -16 25 C-17.32 24.67 -18.64 24.34 -20 24 C-19.44303666 20.13715464 -17.75860899 18.41878055 -15 15.7421875 C-14.195625 14.95199219 -13.39125 14.16179688 -12.5625 13.34765625 C-11.2940625 12.12369141 -11.2940625 12.12369141 -10 10.875 C-8.33126842 9.24951299 -6.66449848 7.62200893 -5 5.9921875 C-4.2575 5.27401855 -3.515 4.55584961 -2.75 3.81591797 C-0.9293649 2.10759631 -0.9293649 2.10759631 0 0 Z " fill="#747474" transform="translate(40,18)"/>
<path d="M0 0 C14.19 0 28.38 0 43 0 C43.495 2.475 43.495 2.475 44 5 C29.15 5 14.3 5 -1 5 C-0.67 3.35 -0.34 1.7 0 0 Z " fill="#747474" transform="translate(21,8)"/>
</svg>
