<svg width="42" height="32" viewBox="0 0 42 32" fill="none" xmlns="http://www.w3.org/2000/svg">
<mask id="mask0_1426_191" style="mask-type:alpha" maskUnits="userSpaceOnUse" x="0" y="0" width="32" height="32">
<path d="M-3.8147e-06 32L32 32L32 1.90735e-06L-1.01717e-06 -8.90181e-07L-3.8147e-06 32Z" fill="#005EFF"/>
</mask>
<g mask="url(#mask0_1426_191)">
<path fill-rule="evenodd" clip-rule="evenodd" d="M21.3657 26.1657C21.0533 26.4781 20.5467 26.4781 20.2343 26.1657L10.6343 16.5657C10.3219 16.2533 10.3219 15.7467 10.6343 15.4343L20.2343 5.83431C20.5467 5.52189 21.0533 5.52189 21.3657 5.83431C21.6781 6.14673 21.6781 6.65326 21.3657 6.96568L12.3314 16L21.3657 25.0343C21.6781 25.3467 21.6781 25.8533 21.3657 26.1657Z" fill="#70779C"/>
</g>
<mask id="mask1_1426_191" style="mask-type:alpha" maskUnits="userSpaceOnUse" x="10" y="0" width="32" height="32">
<path d="M10 32L42 32L42 1.90735e-06L10 -8.90181e-07L10 32Z" fill="#005EFF"/>
</mask>
<g mask="url(#mask1_1426_191)">
<path fill-rule="evenodd" clip-rule="evenodd" d="M31.3657 26.1657C31.0533 26.4781 30.5467 26.4781 30.2343 26.1657L20.6343 16.5657C20.3219 16.2533 20.3219 15.7467 20.6343 15.4343L30.2343 5.83431C30.5467 5.52189 31.0533 5.52189 31.3657 5.83431C31.6781 6.14673 31.6781 6.65326 31.3657 6.96568L22.3314 16L31.3657 25.0343C31.6781 25.3467 31.6781 25.8533 31.3657 26.1657Z" fill="#70779C"/>
</g>
</svg>
