<svg width="42" height="32" viewBox="0 0 42 32" fill="none" xmlns="http://www.w3.org/2000/svg">
<mask id="mask0_1426_191" style="mask-type:alpha" maskUnits="userSpaceOnUse" x="10" y="0" width="32" height="32">
<path d="M42 32L10 32L10 1.90735e-06L42 -8.90181e-07L42 32Z" fill="#005EFF"/>
</mask>
<g mask="url(#mask0_1426_191)">
<path fill-rule="evenodd" clip-rule="evenodd" d="M20.6343 26.1657C20.9467 26.4781 21.4533 26.4781 21.7657 26.1657L31.3657 16.5657C31.6781 16.2533 31.6781 15.7467 31.3657 15.4343L21.7657 5.83431C21.4533 5.52189 20.9467 5.52189 20.6343 5.83431C20.3219 6.14673 20.3219 6.65326 20.6343 6.96568L29.6686 16L20.6343 25.0343C20.3219 25.3467 20.3219 25.8533 20.6343 26.1657Z" fill="#70779C"/>
</g>
<mask id="mask1_1426_191" style="mask-type:alpha" maskUnits="userSpaceOnUse" x="0" y="0" width="32" height="32">
<path d="M32 32L-7.62939e-06 32L-1.04269e-05 1.90735e-06L32 -8.90181e-07L32 32Z" fill="#005EFF"/>
</mask>
<g mask="url(#mask1_1426_191)">
<path fill-rule="evenodd" clip-rule="evenodd" d="M10.6343 26.1657C10.9467 26.4781 11.4533 26.4781 11.7657 26.1657L21.3657 16.5657C21.6781 16.2533 21.6781 15.7467 21.3657 15.4343L11.7657 5.83431C11.4533 5.52189 10.9467 5.52189 10.6343 5.83431C10.3219 6.14673 10.3219 6.65326 10.6343 6.96568L19.6686 16L10.6343 25.0343C10.3219 25.3467 10.3219 25.8533 10.6343 26.1657Z" fill="#70779C"/>
</g>
</svg>
